<?xml version="1.0" standalone="no"?>
<!DOCTYPE svg PUBLIC "-//W3C//DTD SVG 20010904//EN"
 "http://www.w3.org/TR/2001/REC-SVG-20010904/DTD/svg10.dtd">
<svg version="1.0" xmlns="http://www.w3.org/2000/svg"
 width="256.000000pt" height="256.000000pt" viewBox="0 0 256.000000 256.000000"
 preserveAspectRatio="xMidYMid meet">
<metadata>
Created by potrace 1.11, written by Peter Selinger 2001-2013
</metadata>
<g transform="translate(0.000000,256.000000) scale(0.100000,-0.100000)"
fill="#000000" stroke="none">
<path d="M1221 2276 c-51 -18 -109 -72 -132 -123 -21 -46 -42 -161 -54 -298
-4 -38 -8 -81 -11 -95 -2 -14 -6 -56 -10 -95 -8 -87 -11 -107 -21 -116 -5 -4
-70 -10 -146 -13 -346 -15 -409 -30 -507 -122 -140 -131 -90 -319 105 -390 43
-16 81 -19 280 -19 127 0 235 -3 242 -8 8 -5 10 -43 5 -140 -3 -72 -6 -188 -6
-257 0 -106 3 -132 21 -172 27 -59 99 -130 145 -145 75 -23 167 0 233 58 62
55 93 125 111 254 3 22 9 67 14 100 5 33 12 103 16 155 3 52 7 114 9 138 1 24
6 47 11 52 5 5 50 12 99 15 98 6 281 22 360 30 96 11 205 50 256 93 36 30 60
89 57 139 -4 95 -103 188 -227 214 -79 17 -85 17 -296 24 -104 4 -201 8 -214
8 l-24 2 -2 205 c-3 220 -9 289 -31 352 -14 41 -48 94 -74 116 -49 42 -147 59
-209 38z"/>
</g>
</svg>
